<?xml version="1.0" standalone="no"?>
<!DOCTYPE svg PUBLIC "-//W3C//DTD SVG 20010904//EN"
 "http://www.w3.org/TR/2001/REC-SVG-20010904/DTD/svg10.dtd">
<svg version="1.0" xmlns="http://www.w3.org/2000/svg"
 width="200.000000pt" height="100.000000pt" viewBox="0 0 200.000000 100.000000"
 preserveAspectRatio="xMidYMid meet">
<metadata>
Created by potrace 1.16, written by Peter Selinger 2001-2019
</metadata>
<g transform="translate(0.000000,100.000000) scale(0.041667,-0.034483)"
fill="#000000" stroke="none">
<path d="M4381 2001 c-11 -7 -11 -15 -2 -44 7 -19 17 -40 24 -45 7 -6 30 -47
51 -91 38 -78 39 -81 26 -121 -11 -33 -11 -43 -1 -49 7 -5 10 -18 6 -33 -4
-14 0 -41 9 -63 l16 -37 -46 -59 c-25 -32 -48 -59 -51 -59 -3 0 -26 10 -51 22
l-45 23 5 117 5 118 -348 0 -348 0 6 -117 5 -118 -45 -24 c-25 -12 -51 -20
-57 -16 -6 3 -28 31 -50 60 -39 53 -40 54 -24 90 9 22 13 49 9 66 -4 19 -3 29
5 29 8 0 11 10 7 29 -10 47 45 159 84 173 45 15 64 70 39 108 -9 13 -12 12
-25 -4 -8 -11 -15 -25 -15 -30 1 -6 6 -1 13 12 14 24 27 20 27 -10 0 -10 -7
-18 -15 -18 -9 0 -15 -9 -15 -25 0 -15 -6 -25 -14 -25 -8 0 -22 -8 -32 -17
-16 -16 -17 -16 -12 14 4 28 1 32 -23 35 -21 3 -28 0 -26 -11 4 -28 -83 -181
-103 -181 -31 0 -84 -92 -76 -132 3 -15 -1 -42 -9 -61 -12 -30 -12 -37 1 -55
22 -32 61 -28 82 8 9 16 22 32 29 34 6 3 38 -24 71 -60 33 -35 68 -64 76 -64
9 0 35 12 57 26 23 14 42 24 44 22 2 -2 4 -53 6 -114 l4 -111 -79 -127 -79
-128 20 -26 20 -27 441 -3 440 -2 22 30 22 31 -79 127 -80 127 5 113 c2 61 6
112 8 112 3 0 22 -11 44 -25 62 -39 67 -37 152 63 42 50 57 48 86 -9 21 -43
62 -51 86 -18 14 20 13 25 -1 58 -9 20 -16 53 -15 73 1 20 -3 40 -8 43 -6 3
-10 14 -10 25 0 19 -86 110 -104 110 -13 0 -96 162 -96 186 0 19 -38 84 -48
84 -4 0 -13 -4 -21 -9z m-596 -342 c-33 -6 -31 -7 15 -3 148 13 322 15 315 5
-3 -6 1 -11 10 -11 9 0 13 5 10 10 -4 6 14 10 47 9 45 -1 49 -3 23 -9 -28 -7
-27 -8 13 -9 24 0 42 4 42 10 0 6 10 9 23 7 18 -2 23 -10 25 -42 2 -24 -2 -42
-10 -47 -10 -7 -10 -11 -1 -17 13 -8 6 -62 -8 -62 -5 0 -9 -13 -9 -30 0 -16 5
-30 10 -30 6 0 10 -12 10 -26 0 -14 -4 -23 -10 -19 -13 8 -13 -8 1 -22 11 -11
2 -63 -12 -63 -5 0 -9 -13 -9 -30 0 -16 5 -30 10 -30 6 0 10 -8 10 -19 0 -24
-35 -31 -154 -31 l-92 0 1 27 c0 36 -31 44 -44 11 -8 -19 -10 -20 -10 -4 -1
14 -6 17 -22 13 -11 -3 -44 1 -72 8 -29 7 -54 12 -56 9 -6 -6 49 -24 75 -24
13 0 24 -5 24 -10 0 -6 -11 -8 -27 -4 -19 5 -30 2 -40 -12 -14 -18 -15 -18
-33 4 -18 22 -19 22 -25 2 -6 -18 -15 -20 -76 -20 -67 0 -69 1 -69 24 0 14 5
28 11 32 8 5 8 8 0 13 -15 10 -25 157 -12 166 6 3 11 11 11 16 0 6 -4 7 -10 4
-5 -3 -11 2 -11 12 -2 30 2 48 13 54 6 4 8 15 3 25 -7 18 -8 18 -15 -1 -5 -14
-8 -6 -8 28 -1 26 3 47 8 47 6 0 10 5 10 11 0 5 -4 7 -10 4 -11 -7 -14 18 -3
28 3 4 43 6 87 6 68 -2 75 -3 41 -10z m-57 -491 c9 -9 15 -9 24 0 15 15 60 16
74 2 7 -7 20 -7 35 -2 13 5 74 9 134 9 l110 0 -55 -15 c-34 -10 -111 -17 -202
-19 l-148 -4 -22 -32 c-15 -22 -29 -31 -42 -29 -10 2 -23 -1 -29 -7 -8 -8 24
-11 116 -11 l127 0 0 -30 c0 -18 6 -33 15 -36 8 -4 12 -10 9 -15 -3 -5 19 -10
48 -10 l53 -1 -50 -13 c-27 -7 -99 -13 -160 -13 -60 1 -100 3 -89 5 14 3 24
14 27 31 3 15 4 29 2 30 -2 2 -28 -1 -57 -7 -31 -7 -64 -8 -77 -3 l-22 8 25
27 c14 15 26 30 26 32 0 22 34 65 51 65 15 0 19 5 15 16 -3 9 -4 20 0 25 8 13
48 11 62 -3z m681 -172 c25 -39 27 -56 6 -56 -9 0 -12 6 -8 16 5 14 1 15 -28
8 -19 -4 -52 -8 -74 -9 -22 -1 -45 -4 -50 -7 -6 -3 -73 -6 -150 -6 -77 0 -133
2 -125 4 22 7 383 82 397 83 6 1 21 -14 32 -33z"/>
<path d="M4154 1463 c2 -16 1 -22 -1 -15 -9 24 -26 13 -22 -14 0 -4 -5 -11
-13 -15 -9 -6 -7 -9 8 -9 13 0 24 -8 27 -20 6 -22 -19 -33 -125 -51 -57 -9
-80 -8 -144 6 -54 12 -77 22 -82 35 -6 17 -8 17 -19 -6 -7 -15 -7 -24 -1 -24
6 0 23 -11 39 -24 24 -21 26 -25 11 -28 -23 -5 76 -11 160 -10 37 0 67 -3 67
-6 -5 -36 3 -72 17 -72 8 0 12 4 9 10 -3 6 1 7 9 4 11 -4 16 0 16 12 0 12 3
15 8 8 6 -10 28 -12 65 -5 4 0 7 9 8 19 0 14 2 14 9 -3 5 -11 9 -14 9 -7 1 9
8 11 23 6 20 -6 21 -5 10 9 -8 9 -10 22 -6 28 5 8 2 10 -8 6 -9 -3 -21 0 -27
6 -8 8 -11 7 -11 -6 0 -10 -5 -14 -15 -11 -19 8 -42 -6 -26 -16 9 -5 8 -10 -4
-20 -13 -11 -15 -9 -15 13 0 35 -18 44 -29 15 -9 -22 -9 -22 -17 -4 -5 13 -3
21 5 24 7 2 28 17 45 33 23 19 36 25 43 18 7 -7 12 -6 16 4 3 9 -2 17 -14 20
-10 3 -19 13 -19 22 0 22 22 43 40 37 12 -4 13 -3 3 10 -7 8 -9 19 -5 23 4 5
-1 5 -10 2 -12 -4 -18 -1 -18 8 0 8 -4 15 -10 15 -5 0 -8 -12 -6 -27z"/>
<path d="M236 1559 c-102 -81 -55 -249 70 -249 34 0 51 6 75 28 20 17 29 34
25 41 -5 8 -18 3 -42 -19 -37 -32 -59 -36 -97 -19 -74 34 -74 174 0 208 37 17
59 13 91 -14 17 -14 35 -25 41 -25 22 0 10 26 -22 48 -43 29 -105 29 -141 1z"/>
<path d="M496 1465 c-21 -64 -45 -119 -53 -122 -7 -3 -13 -11 -13 -19 0 -10
12 -14 40 -14 28 0 40 4 40 14 0 8 -5 16 -12 18 -7 3 -9 14 -4 31 6 25 10 27
61 27 51 0 56 -2 66 -27 7 -19 7 -29 0 -31 -6 -2 -11 -10 -11 -18 0 -10 12
-14 40 -14 29 0 40 4 40 15 0 8 -6 15 -13 15 -7 0 -30 51 -53 118 -36 103 -44
117 -65 120 -22 3 -27 -5 -63 -113z"/>
<path d="M745 1555 c-46 -45 -29 -95 42 -121 62 -23 73 -32 73 -60 0 -52 -94
-55 -107 -4 -5 20 -43 29 -43 10 0 -6 12 -24 27 -40 20 -23 35 -30 64 -30 51
0 67 8 85 41 25 50 10 78 -62 110 -70 32 -78 40 -69 69 12 38 88 38 100 -1 7
-20 45 -27 45 -9 0 6 -12 22 -27 35 -38 33 -95 34 -128 0z"/>
<path d="M940 1565 c0 -8 5 -15 10 -15 6 0 10 -42 10 -105 0 -63 -4 -105 -10
-105 -5 0 -10 -7 -10 -15 0 -12 17 -15 90 -15 l90 0 0 35 c0 24 -5 35 -15 35
-8 0 -15 -9 -15 -20 0 -17 -7 -20 -50 -20 l-50 0 0 45 0 45 40 0 c29 0 40 4
40 15 0 11 -11 15 -40 15 l-40 0 0 45 0 45 50 0 c43 0 50 -3 50 -20 0 -11 7
-20 15 -20 10 0 15 11 15 35 l0 35 -90 0 c-73 0 -90 -3 -90 -15z"/>
<path d="M1140 1545 c0 -24 5 -35 15 -35 8 0 15 9 15 20 0 16 7 20 35 20 l35
0 0 -105 c0 -63 -4 -105 -10 -105 -5 0 -10 -7 -10 -15 0 -11 11 -15 40 -15 29
0 40 4 40 15 0 8 -7 15 -15 15 -12 0 -15 18 -15 105 l0 105 35 0 c28 0 35 -4
35 -20 0 -13 7 -20 20 -20 16 0 20 7 20 35 l0 35 -120 0 -120 0 0 -35z"/>
<path d="M1532 1555 c-40 -34 -56 -76 -49 -132 11 -101 125 -150 198 -85 20
17 29 34 25 41 -5 8 -18 3 -42 -19 -37 -32 -59 -36 -97 -19 -74 34 -74 174 0
208 37 17 59 13 91 -14 17 -14 35 -25 41 -25 22 0 10 26 -22 48 -46 31 -106
30 -145 -3z"/>
<path d="M1796 1559 c-102 -80 -54 -249 70 -249 121 0 169 164 72 245 -38 32
-104 34 -142 4z m126 -28 c30 -27 33 -35 33 -86 0 -51 -3 -59 -33 -86 -18 -16
-43 -29 -57 -29 -14 0 -39 13 -57 29 -30 27 -33 35 -33 86 0 51 3 59 33 86 18
16 43 29 57 29 14 0 39 -13 57 -29z"/>
<path d="M2030 1565 c0 -8 7 -15 15 -15 12 0 15 -18 15 -105 0 -87 -3 -105
-15 -105 -8 0 -15 -7 -15 -15 0 -12 18 -15 100 -15 l100 0 0 40 c0 29 -4 40
-15 40 -9 0 -15 -9 -15 -25 0 -24 -3 -25 -55 -25 l-55 0 0 105 c0 63 4 105 10
105 6 0 10 7 10 15 0 11 -11 15 -40 15 -29 0 -40 -4 -40 -15z"/>
<path d="M2260 1565 c0 -8 7 -15 15 -15 12 0 15 -18 15 -105 0 -87 -3 -105
-15 -105 -8 0 -15 -7 -15 -15 0 -12 18 -15 100 -15 l100 0 0 40 c0 44 -26 58
-32 18 -3 -20 -10 -23 -55 -26 l-53 -3 0 105 c0 64 4 106 10 106 6 0 10 7 10
15 0 11 -11 15 -40 15 -29 0 -40 -4 -40 -15z"/>
<path d="M2490 1565 c0 -8 5 -15 10 -15 6 0 10 -42 10 -105 0 -63 -4 -105 -10
-105 -5 0 -10 -7 -10 -15 0 -12 17 -15 90 -15 l90 0 0 35 c0 24 -5 35 -15 35
-8 0 -15 -9 -15 -20 0 -17 -7 -20 -50 -20 l-50 0 0 45 0 45 40 0 c29 0 40 4
40 15 0 11 -11 15 -40 15 l-40 0 0 45 0 45 50 0 c43 0 50 -3 50 -20 0 -11 7
-20 15 -20 10 0 15 11 15 35 l0 35 -90 0 c-73 0 -90 -3 -90 -15z"/>
<path d="M2758 1562 c-65 -40 -77 -155 -23 -212 38 -40 86 -48 134 -24 20 10
39 20 44 22 4 2 7 -6 7 -17 0 -12 5 -21 10 -21 6 0 10 28 10 65 l0 65 -50 0
c-38 0 -50 -4 -50 -15 0 -10 11 -15 35 -15 41 0 44 -12 10 -45 -35 -36 -88
-34 -126 4 -24 24 -29 38 -29 76 0 40 5 52 34 81 41 41 73 43 114 9 17 -14 35
-25 41 -25 22 0 10 26 -22 48 -40 27 -100 29 -139 4z"/>
<path d="M3010 1565 c0 -8 5 -15 10 -15 6 0 10 -42 10 -105 0 -63 -4 -105 -10
-105 -5 0 -10 -7 -10 -15 0 -12 17 -15 90 -15 l90 0 0 35 c0 24 -5 35 -15 35
-8 0 -15 -9 -15 -20 0 -17 -7 -20 -50 -20 l-50 0 0 45 0 45 40 0 c29 0 40 4
40 15 0 11 -11 15 -40 15 l-40 0 0 45 0 45 50 0 c43 0 50 -3 50 -20 0 -11 7
-20 15 -20 10 0 15 11 15 35 l0 35 -90 0 c-73 0 -90 -3 -90 -15z"/>
</g>
</svg>
